<svg width="436" height="496" viewBox="0 0 436 496" fill="none" xmlns="http://www.w3.org/2000/svg">
<path d="M407.67 212.828V293.45C407.67 305.468 394.657 312.984 384.247 306.972L296.055 257.595" stroke="#032E9B" stroke-width="2" stroke-miterlimit="10"/>
<path d="M357.592 215.715L435.627 260.771V170.664L357.592 125.613V215.715Z" fill="#3076FF"/>
<path d="M35.4316 394.252L192.032 484.665L348.627 394.252L192.027 303.838L35.4316 394.252Z" stroke="#032E9B" stroke-width="2" stroke-miterlimit="10"/>
<path d="M213.178 249.592L291.213 294.648V204.541L213.178 159.49V249.592Z" fill="url(#paint0_linear)"/>
<path d="M180.692 255.806V37.6895L130.4 66.7297V284.84L180.692 255.806Z" fill="url(#paint1_linear)"/>
<path d="M97.2476 167.301L0.220703 223.319V344.026L97.2476 288.007V167.301Z" fill="url(#paint2_linear)"/>
<path d="M281.865 432.541L155.924 359.828" stroke="#032E9B" stroke-width="2" stroke-miterlimit="10"/>
<path d="M100.131 431.994L226.072 359.281" stroke="#032E9B" stroke-width="2" stroke-miterlimit="10"/>
<path d="M298.241 263.628L293.646 266.281V251.561L298.241 248.908V263.628Z" fill="url(#paint3_linear)"/>
<path d="M282.16 259.651L293.647 266.281V251.561L282.16 244.926V259.651Z" fill="#032E9B"/>
<path d="M286.75 242.289L282.172 244.931L293.648 251.561L298.226 248.913L286.75 242.289Z" fill="url(#paint4_linear)"/>
<path d="M415.847 253.235L411.252 255.888V241.169L415.847 238.516V253.235Z" fill="url(#paint5_linear)"/>
<path d="M399.766 249.258L411.253 255.888V241.168L399.766 234.533V249.258Z" fill="#032E9B"/>
<path d="M404.356 231.896L399.777 234.539L411.253 241.168L415.832 238.521L404.356 231.896Z" fill="url(#paint6_linear)"/>
<path d="M125.172 124.766L128.202 126.516V116.801L125.172 115.051V124.766Z" fill="url(#paint7_linear)"/>
<path d="M135.785 122.14L128.203 126.516V116.802L135.785 112.426V122.14Z" fill="#032E9B"/>
<path d="M132.754 110.686L135.779 112.43L128.203 116.801L125.184 115.056L132.754 110.686Z" fill="url(#paint8_linear)"/>
<path d="M125.172 173.449L128.202 175.2V165.485L125.172 163.734V173.449Z" fill="url(#paint9_linear)"/>
<path d="M135.785 170.824L128.203 175.2V165.485L135.785 161.109V170.824Z" fill="#032E9B"/>
<path d="M132.754 159.369L135.779 161.114L128.203 165.485L125.184 163.74L132.754 159.369Z" fill="url(#paint10_linear)"/>
<path d="M125.172 222.133L128.202 223.883V214.168L125.172 212.418V222.133Z" fill="url(#paint11_linear)"/>
<path d="M135.785 219.508L128.203 223.884V214.169L135.785 209.793V219.508Z" fill="#032E9B"/>
<path d="M132.754 208.053L135.779 209.798L128.203 214.168L125.184 212.423L132.754 208.053Z" fill="url(#paint12_linear)"/>
<path d="M170.091 68.4855L164.922 65.8872C161.93 64.1915 157.811 64.4541 153.271 67.0742C144.125 72.3528 136.713 85.1909 136.713 95.748C136.713 101.218 138.704 105.003 141.893 106.644L147.489 109.45L147.434 107.454C149.25 107.197 151.214 106.491 153.271 105.31C162.416 100.031 169.828 87.1929 169.828 76.6358C169.828 73.3045 169.09 70.6024 167.793 68.6222L170.091 68.4855Z" fill="url(#paint13_linear)"/>
<path d="M175.008 79.2446C175.008 89.8017 167.596 102.64 158.45 107.918C149.304 113.197 141.893 108.919 141.893 98.3622C141.893 87.8051 149.304 74.967 158.45 69.6885C167.596 64.4045 175.008 68.682 175.008 79.2446Z" fill="url(#paint14_linear)"/>
<path d="M158.451 69.6842C150.01 74.5579 143.058 85.8699 142.035 95.8855C144.606 101.115 150.41 102.455 157.176 98.5494C165.616 93.6756 172.569 82.3636 173.592 72.3481C171.026 67.1187 165.217 65.7786 158.451 69.6842Z" fill="#FFAF45"/>
<path d="M160.607 89.2984L165.262 86.6126C165.792 86.3063 166.219 85.5623 166.219 84.9552C166.219 84.3425 165.792 84.0964 165.262 84.4027L160.607 87.0885V81.7115C160.607 81.0988 160.18 80.8527 159.65 81.159C159.119 81.4653 158.692 82.2092 158.692 82.8164V88.1934L154.037 90.8792C153.507 91.1855 153.08 91.9294 153.08 92.5366C153.08 93.1492 153.507 93.3954 154.037 93.0891L158.692 90.4033V95.7803C158.692 96.3929 159.119 96.6391 159.65 96.3328C160.18 96.0265 160.607 95.2825 160.607 94.6754V89.2984Z" fill="white"/>
<path d="M170.091 216.587L164.922 213.989C161.93 212.293 157.811 212.556 153.271 215.176C144.125 220.454 136.713 233.292 136.713 243.85C136.713 249.32 138.704 253.105 141.893 254.746L147.489 257.552L147.434 255.555C149.25 255.298 151.214 254.593 153.271 253.411C162.416 248.133 169.828 235.294 169.828 224.737C169.828 221.406 169.09 218.704 167.793 216.724L170.091 216.587Z" fill="#1C439B"/>
<path d="M170.145 243.652C176.61 232.455 176.611 220.352 170.146 216.619C163.681 212.887 153.2 218.938 146.735 230.136C140.27 241.333 140.27 253.436 146.734 257.168C153.199 260.901 163.681 254.849 170.145 243.652Z" fill="#032E9B"/>
<path d="M158.451 217.778C150.01 222.652 143.058 233.964 142.035 243.979C144.606 249.209 150.41 250.549 157.176 246.643C165.616 241.769 172.569 230.457 173.592 220.442C171.026 215.212 165.217 213.872 158.451 217.778Z" fill="url(#paint15_radial)"/>
<path d="M161.518 233.659C162.755 231.516 162.755 229.2 161.517 228.486C160.28 227.771 158.274 228.929 157.037 231.072C155.8 233.214 155.8 235.53 157.037 236.245C158.275 236.959 160.281 235.802 161.518 233.659Z" fill="white"/>
<path d="M159.43 236.874C155.995 238.86 153.205 243.684 153.205 247.656L165.649 240.468C165.655 236.497 162.865 234.889 159.43 236.874Z" fill="white"/>
<path d="M170.089 168.083L164.92 165.485C161.928 163.789 157.809 164.052 153.269 166.672C144.123 171.95 136.711 184.789 136.711 195.346C136.711 200.816 138.702 204.601 141.891 206.242L147.487 209.048L147.432 207.051C149.248 206.794 151.212 206.089 153.269 204.907C162.414 199.629 169.826 186.791 169.826 176.233C169.826 172.902 169.088 170.2 167.791 168.22L170.089 168.083Z" fill="#1C439B"/>
<path d="M170.145 195.15C176.61 183.953 176.611 171.85 170.146 168.118C163.681 164.385 153.2 170.437 146.735 181.634C140.27 192.831 140.27 204.934 146.734 208.666C153.199 212.399 163.681 206.347 170.145 195.15Z" fill="#032E9B"/>
<path d="M158.449 169.276C150.008 174.15 143.056 185.462 142.033 195.477C144.604 200.707 150.408 202.047 157.174 198.141C165.614 193.267 172.567 181.955 173.59 171.94C171.024 166.711 165.215 165.37 158.449 169.276Z" fill="url(#paint16_radial)"/>
<path d="M161.518 185.157C162.755 183.014 162.755 180.698 161.517 179.984C160.28 179.269 158.274 180.427 157.037 182.57C155.8 184.712 155.8 187.028 157.037 187.743C158.275 188.457 160.281 187.3 161.518 185.157Z" fill="white"/>
<path d="M159.428 188.372C155.993 190.358 153.203 195.182 153.203 199.154L165.647 191.966C165.653 187.995 162.863 186.387 159.428 188.372Z" fill="white"/>
<path d="M170.091 118.284L164.922 115.686C161.93 113.99 157.811 114.253 153.271 116.873C144.125 122.152 136.713 134.99 136.713 145.547C136.713 151.017 138.704 154.802 141.893 156.443L147.489 159.249L147.434 157.253C149.25 156.995 151.214 156.29 153.271 155.108C162.416 149.83 169.828 136.992 169.828 126.435C169.828 123.103 169.09 120.401 167.793 118.421L170.091 118.284Z" fill="#1C439B"/>
<path d="M170.149 145.355C176.614 134.158 176.615 122.055 170.15 118.323C163.685 114.59 153.204 120.642 146.739 131.839C140.274 143.036 140.274 155.139 146.738 158.871C153.203 162.604 163.684 156.552 170.149 145.355Z" fill="#032E9B"/>
<path d="M158.451 119.481C150.01 124.354 143.058 135.666 142.035 145.682C144.606 150.911 150.41 152.251 157.176 148.346C165.616 143.472 172.569 132.16 173.592 122.145C171.026 116.91 165.217 115.575 158.451 119.481Z" fill="url(#paint17_radial)"/>
<path d="M161.522 135.362C162.759 133.219 162.759 130.903 161.521 130.189C160.284 129.474 158.278 130.632 157.041 132.775C155.804 134.917 155.804 137.233 157.041 137.948C158.279 138.662 160.285 137.505 161.522 135.362Z" fill="white"/>
<path d="M159.43 138.571C155.995 140.557 153.205 145.382 153.205 149.353L165.649 142.165C165.655 138.194 162.865 136.586 159.43 138.571Z" fill="white"/>
<path d="M27.0939 293.12L19.4141 297.556V278.827L27.0939 274.391V293.12Z" fill="url(#paint18_linear)"/>
<path d="M44.1428 283.28L36.4629 287.711V260.509L44.1428 256.078V283.28Z" fill="url(#paint19_linear)"/>
<path d="M61.1877 273.433L53.5078 277.87V234.569L61.1877 230.133V273.433Z" fill="url(#paint20_linear)"/>
<path d="M78.215 263.605L70.5352 268.041V237.185L78.215 232.754V263.605Z" fill="url(#paint21_linear)"/>
<path d="M68.5117 195.82L46.3418 208.62V226.846L53.42 222.76L57.4295 228.268L61.4335 218.132L68.5117 214.046V195.82Z" fill="url(#paint22_linear)"/>
<path d="M84.8616 275.005L18.3682 313.393C17.7228 313.765 17.2031 313.372 17.2031 312.513C17.2031 311.654 17.7228 310.658 18.3682 310.286L84.8616 271.898C85.507 271.526 86.0267 271.92 86.0267 272.779C86.0267 273.637 85.5016 274.633 84.8616 275.005Z" fill="url(#paint23_linear)"/>
<path d="M84.8616 285.151L18.3682 323.54C17.7228 323.912 17.2031 323.518 17.2031 322.659C17.2031 321.8 17.7228 320.805 18.3682 320.433L84.8616 282.044C85.507 281.672 86.0267 282.066 86.0267 282.925C86.0267 283.784 85.5016 284.779 84.8616 285.151Z" fill="url(#paint24_linear)"/>
<path d="M225.141 148.834V0.503906L331.702 62.0305V210.36L225.141 148.834Z" fill="#3076FF"/>
<path d="M243.603 25.0814L242.93 24.9938L244.839 24.053C245.829 23.6318 247.12 23.774 248.537 24.5891L299.255 53.87C302.378 55.6751 304.911 60.0565 304.911 63.6667V81.57C304.615 85.5522 301.12 86.2961 301.12 86.2961L253.81 60.5543L242.886 67.5121L241.07 67.5231C241.07 67.5231 243.149 25.7651 243.603 25.0814Z" fill="url(#paint25_linear)"/>
<path d="M297.438 54.7783L246.72 25.4974C243.597 23.6923 241.064 25.1582 241.064 28.763V46.6663C241.064 47.0218 241.092 47.3883 241.136 47.7548L241.064 47.7165V67.5179L252.721 59.9201L297.438 85.7385C300.562 87.5436 303.094 86.0776 303.094 82.4729V64.5696C303.094 60.9649 300.562 56.5834 297.438 54.7783Z" fill="white"/>
<path d="M251.146 41.0534L292.111 64.7057C292.505 64.9354 292.828 64.6893 292.828 64.1642C292.828 63.6336 292.505 63.0209 292.111 62.7912L251.146 39.1389C250.752 38.9092 250.43 39.1553 250.43 39.6804C250.43 40.2056 250.752 40.8237 251.146 41.0534Z" fill="url(#paint26_linear)"/>
<path d="M252.054 49.2644L293.019 72.9166C293.413 73.1464 293.736 72.9002 293.736 72.3751C293.736 71.8445 293.413 71.2319 293.019 71.0021L252.054 47.3499C251.661 47.1201 251.338 47.3663 251.338 47.8914C251.338 48.422 251.661 49.0346 252.054 49.2644Z" fill="url(#paint27_linear)"/>
<path d="M260.4 81.3287C260.4 81.3287 262.867 78.621 265.958 80.4753L315.04 108.81C318.065 110.555 320.516 114.8 320.516 118.289L320.22 156.016L319.154 156.809L317.885 151.044L309.242 135.427L265.969 110.44C262.944 108.695 260.493 104.45 260.493 100.96V83.6315C260.493 82.8439 260.625 82.1711 260.849 81.6076C260.696 81.542 260.548 81.4545 260.4 81.3287Z" fill="url(#paint28_linear)"/>
<path d="M264.595 81.4875L313.677 109.822C316.702 111.567 319.153 115.812 319.153 119.302V156.809L307.874 136.434L264.6 111.447C261.576 109.702 259.125 105.457 259.125 101.967V84.6382C259.125 81.1593 261.576 79.7425 264.595 81.4875Z" fill="url(#paint29_linear)"/>
<path d="M269.262 95.5062L306.857 117.211C307.224 117.419 307.514 117.2 307.514 116.713C307.514 116.227 307.218 115.663 306.857 115.455L269.262 93.7503C268.895 93.5424 268.605 93.7612 268.605 94.2481C268.605 94.7294 268.901 95.2928 269.262 95.5062Z" fill="white"/>
<path d="M269.262 102.793L306.857 124.498C307.224 124.706 307.514 124.487 307.514 124C307.514 123.514 307.218 122.95 306.857 122.742L269.262 101.037C268.895 100.83 268.605 101.048 268.605 101.535C268.605 102.022 268.901 102.585 269.262 102.793Z" fill="white"/>
<path d="M239.488 111.736L238.881 111.654L240.61 110.801C241.512 110.418 242.683 110.549 243.963 111.288L289.977 137.856C292.81 139.491 295.107 143.468 295.107 146.744V162.99C294.839 166.601 291.667 167.273 291.667 167.273L248.744 143.916L238.832 150.229L237.186 150.24C237.186 150.24 239.073 112.355 239.488 111.736Z" fill="url(#paint30_linear)"/>
<path d="M288.33 138.681L242.316 112.113C239.483 110.477 237.186 111.801 237.186 115.078V131.324C237.186 131.646 237.207 131.98 237.251 132.314L237.186 132.281V150.244L247.759 143.352L288.33 166.775C291.164 168.41 293.461 167.086 293.461 163.81V147.564C293.461 144.293 291.164 140.316 288.33 138.681Z" fill="white"/>
<path d="M246.333 126.226L283.501 147.685C283.862 147.893 284.152 147.674 284.152 147.193C284.152 146.711 283.862 146.153 283.501 145.946L246.333 124.487C245.972 124.279 245.682 124.498 245.682 124.979C245.682 125.46 245.972 126.018 246.333 126.226Z" fill="url(#paint31_linear)"/>
<path d="M247.153 133.677L284.322 155.136C284.683 155.344 284.972 155.125 284.972 154.644C284.972 154.162 284.683 153.605 284.322 153.397L247.153 131.938C246.792 131.73 246.502 131.949 246.502 132.43C246.502 132.912 246.797 133.469 247.153 133.677Z" fill="url(#paint32_linear)"/>
<path d="M386.921 249.691C386.921 278.25 366.874 289.824 342.138 275.542C317.403 261.26 297.355 226.536 297.355 197.977C297.355 169.418 317.403 157.844 342.138 172.126C366.874 186.408 386.921 221.132 386.921 249.691Z" fill="url(#paint33_linear)"/>
<path d="M327.357 214.541C327.357 214.601 327.352 214.656 327.352 214.716C327.352 223.693 333.653 234.605 341.426 239.096C349.199 243.587 355.5 239.944 355.5 230.968C355.5 222.052 349.281 211.221 341.574 206.681V189.549C357.47 198.82 370.33 221.149 370.33 239.528C370.33 257.962 357.388 265.434 341.421 256.217C325.454 247 312.512 224.584 312.512 206.15C312.512 206.09 312.512 206.035 312.512 205.975L327.357 214.541Z" fill="#032E9B"/>
<path d="M341.578 239.173C349.28 243.527 355.505 239.884 355.505 230.962C355.505 222.046 349.285 211.216 341.578 206.675V189.549C357.474 198.82 370.334 221.149 370.334 239.528C370.334 257.907 357.474 265.385 341.578 256.305V239.173Z" fill="url(#paint34_linear)"/>
<path d="M355.505 230.962C355.505 222.046 349.285 211.215 341.578 206.675V189.549C357.474 198.82 370.334 221.149 370.334 239.528C370.334 239.588 370.334 239.643 370.334 239.703L355.499 231.137C355.499 231.077 355.505 231.022 355.505 230.962Z" fill="#3076FF"/>
<path d="M349.993 231.307C349.993 235.049 348.291 235.919 346.328 234.786C344.413 233.681 342.756 230.952 342.734 227.391C342.734 223.814 344.413 222.791 346.443 223.967C348.598 225.208 349.993 227.922 349.993 231.307ZM344.364 228.222C344.342 230.476 345.097 232.631 346.371 233.37C347.744 234.163 348.357 232.823 348.357 230.476C348.357 228.321 347.816 226.204 346.371 225.372C345.075 224.618 344.364 225.985 344.364 228.222ZM336.164 229.026L345.195 215.898L346.519 216.664L337.488 229.792L336.164 229.026ZM339.993 218.19C339.993 221.932 338.292 222.802 336.307 221.658C334.392 220.553 332.735 217.824 332.713 214.236C332.713 210.686 334.392 209.663 336.422 210.839C338.571 212.075 339.993 214.804 339.993 218.19ZM334.365 215.105C334.316 217.343 335.049 219.487 336.35 220.236C337.723 221.029 338.336 219.689 338.336 217.343C338.336 215.187 337.795 213.07 336.35 212.239C335.049 211.49 334.365 212.868 334.365 215.105Z" fill="#032E9B"/>
<path d="M374.504 170.386C373.88 170.649 373.804 171.814 374.323 173.116L375.106 175.074C375.614 176.343 376.539 177.366 377.299 177.514L379.361 177.902C379.881 178.651 380.45 179.357 381.057 180.002L381.418 182.601C381.56 183.618 382.419 184.811 383.425 185.396L384.946 186.277C385.931 186.845 386.773 186.67 386.943 185.861L387.408 183.684C388.119 183.749 388.775 183.673 389.366 183.465L391.455 185.39C392.227 186.102 393.135 186.091 393.611 185.369L394.344 184.253C394.83 183.514 394.716 182.245 394.076 181.277L392.385 178.733C392.407 178.454 392.424 178.17 392.424 177.875C392.424 177.41 392.391 176.934 392.336 176.452L393.988 175.752C394.612 175.49 394.688 174.325 394.169 173.023L393.386 171.065C392.878 169.795 391.953 168.773 391.193 168.625L389.005 168.215C388.524 167.542 388.009 166.902 387.462 166.317L387.074 163.538C386.932 162.52 386.073 161.328 385.066 160.743L383.546 159.862C382.561 159.293 381.719 159.468 381.549 160.278L381.057 162.602C380.406 162.548 379.799 162.613 379.246 162.788L377.036 160.754C376.265 160.042 375.357 160.053 374.881 160.775L374.148 161.891C373.662 162.63 373.776 163.899 374.416 164.867L376.118 167.427C376.085 167.744 376.068 168.078 376.068 168.423C376.068 168.844 376.096 169.27 376.139 169.697L374.504 170.386ZM379.881 170.605C379.881 167.821 381.834 166.694 384.246 168.083C386.658 169.473 388.611 172.859 388.611 175.643C388.611 178.427 386.658 179.554 384.246 178.165C381.839 176.775 379.881 173.389 379.881 170.605Z" fill="url(#paint35_linear)"/>
<path d="M390.066 204.7C389.169 205.078 389.059 206.757 389.809 208.628L390.936 211.45C391.663 213.277 392.998 214.754 394.097 214.962L397.068 215.52C397.817 216.597 398.632 217.615 399.507 218.545L400.027 222.292C400.229 223.758 401.465 225.475 402.92 226.318L405.114 227.581C406.531 228.402 407.745 228.15 407.991 226.985L408.658 223.851C409.681 223.944 410.628 223.834 411.481 223.533L414.495 226.301C415.605 227.324 416.913 227.313 417.596 226.274L418.652 224.666C419.352 223.599 419.188 221.772 418.264 220.377L415.83 216.712C415.862 216.313 415.884 215.903 415.884 215.471C415.884 214.798 415.841 214.114 415.759 213.425L418.138 212.418C419.035 212.041 419.144 210.362 418.395 208.491L417.268 205.668C416.541 203.841 415.206 202.364 414.107 202.157L410.956 201.566C410.267 200.598 409.523 199.679 408.73 198.831L408.172 194.832C407.969 193.366 406.733 191.649 405.278 190.806L403.085 189.543C401.668 188.722 400.453 188.974 400.207 190.139L399.496 193.487C398.561 193.405 397.686 193.498 396.892 193.749L393.709 190.823C392.599 189.8 391.291 189.811 390.607 190.85L389.552 192.458C388.852 193.525 389.016 195.352 389.94 196.747L392.391 200.439C392.347 200.898 392.32 201.374 392.32 201.872C392.32 202.474 392.358 203.092 392.423 203.71L390.066 204.7ZM397.817 205.017C397.817 201.008 400.634 199.383 404.102 201.385C407.575 203.387 410.387 208.267 410.387 212.276C410.387 216.286 407.57 217.91 404.102 215.908C400.634 213.901 397.817 209.021 397.817 205.017Z" fill="url(#paint36_linear)"/>
<path d="M271.982 262.006C283.195 255.532 283.195 234.538 271.981 215.116C260.767 195.693 242.586 185.196 231.373 191.67C220.16 198.144 220.161 219.138 231.375 238.56C242.589 257.983 260.769 268.48 271.982 262.006Z" fill="#3076FF"/>
<path d="M269.356 252.966L232.428 231.65V198.852L269.356 220.168V252.966Z" fill="url(#paint37_linear)"/>
<path d="M232.428 198.852L250.889 231.239L269.356 220.168L232.428 198.852Z" fill="white"/>
<path d="M131.709 215.562L113.871 225.862V137.445C113.871 131.828 116.869 126.637 121.731 123.825L131.266 118.322" stroke="#032E9B" stroke-width="2" stroke-miterlimit="10"/>
<path d="M113.871 346.209V176.759L129.991 167.449" stroke="#032E9B" stroke-width="2" stroke-miterlimit="10"/>
<path d="M266.209 370.429L203.457 334.196C197.21 330.586 187.753 330.197 182.343 333.321L118.07 370.429H86.9023V392.233H87.2524C87.5916 394.388 89.3037 396.587 92.3505 398.348L180.822 449.427C187.069 453.037 196.527 453.425 201.936 450.302L293.444 397.467C295.873 396.067 297.065 394.191 297.087 392.233H297.372V370.429H266.209Z" fill="url(#paint38_linear)"/>
<path d="M193.113 452.402V331.269C189.109 331.022 185.171 331.684 182.337 333.32L118.065 370.428H86.8965V392.232H87.2466C87.5857 394.387 89.2978 396.586 92.3446 398.347L180.816 449.426C184.334 451.45 188.863 452.462 193.113 452.402Z" fill="url(#paint39_linear)"/>
<path d="M293.443 375.663L201.935 428.498C196.525 431.621 187.073 431.233 180.821 427.623L92.3491 376.544C86.1024 372.933 85.4241 367.48 90.8339 364.357L182.342 311.522C187.751 308.398 197.204 308.787 203.456 312.397L291.928 363.476C298.174 367.081 298.853 372.54 293.443 375.663Z" fill="url(#paint40_linear)"/>
<path d="M260.861 326.217L202.638 292.604C196.84 289.256 188.072 288.895 183.05 291.794L123.422 326.217H94.502V346.445H94.8247C95.1365 348.442 96.7282 350.487 99.5562 352.117L181.645 399.509C187.443 402.857 196.211 403.218 201.233 400.319L286.132 351.302C288.386 350 289.491 348.266 289.513 346.445H289.781V326.217H260.861Z" fill="url(#paint41_linear)"/>
<path d="M193.044 402.277V289.884C189.33 289.655 185.676 290.273 183.05 291.788L123.422 326.216H94.502V346.444H94.8247C95.1365 348.441 96.7282 350.487 99.5562 352.117L181.645 399.509C184.899 401.39 189.1 402.331 193.044 402.277Z" fill="url(#paint42_linear)"/>
<path d="M286.132 331.073L201.232 380.09C196.211 382.989 187.442 382.628 181.644 379.281L99.5559 331.888C93.7577 328.541 93.1286 323.476 98.1501 320.577L183.05 271.56C188.071 268.661 196.84 269.022 202.638 272.369L284.726 319.761C290.524 323.115 291.154 328.174 286.132 331.073Z" fill="url(#paint43_linear)"/>
<path d="M259.85 329.607L198.69 364.921C195.074 367.011 188.757 366.748 184.577 364.336L125.447 330.198C121.268 327.785 120.819 324.137 124.435 322.053L185.595 286.739C189.211 284.649 195.528 284.912 199.708 287.324L258.838 321.462C263.012 323.874 263.466 327.517 259.85 329.607Z" fill="url(#paint44_linear)"/>
<path d="M234.519 328.195L196.24 350.294C193.975 351.601 190.02 351.437 187.406 349.928L150.396 328.562C147.781 327.052 147.496 324.771 149.761 323.464L188.04 301.365C190.305 300.058 194.26 300.222 196.874 301.731L233.884 323.097C236.499 324.601 236.783 326.888 234.519 328.195Z" stroke="url(#paint45_linear)" stroke-width="3" stroke-miterlimit="10"/>
<path d="M187.689 315.785L193.979 312.125C188.323 308.86 183.745 300.928 183.761 294.43L177.471 298.089C177.454 304.587 182.038 312.524 187.689 315.785Z" fill="url(#paint46_linear)"/>
<path d="M187.854 315.878L194.144 312.224L193.985 312.131L187.689 315.785L187.854 315.878Z" fill="url(#paint47_linear)"/>
<path d="M187.809 329.765L194.105 326.105L194.143 312.223L187.852 315.877L187.809 329.765Z" fill="#052635"/>
<path d="M165.447 270.896L165.393 291.108C165.382 294.565 165.967 298.274 167.121 302.119C168.243 305.822 169.84 309.487 171.886 313.032C173.931 316.576 176.311 319.798 178.964 322.626C181.721 325.553 184.647 327.927 187.656 329.666L187.814 329.759L187.853 315.871L187.694 315.778C182.038 312.512 177.46 304.581 177.476 298.082L177.531 277.865L165.447 270.896Z" fill="#032E9B"/>
<path d="M177.477 298.088L183.767 294.434L183.827 274.217L177.531 277.876L177.477 298.088Z" fill="url(#paint48_linear)"/>
<path d="M177.531 277.876L183.826 274.216L171.738 267.242L165.447 270.896L177.531 277.876Z" fill="#062F41"/>
<path d="M177.531 277.878L183.827 274.218L183.855 263.48L177.564 267.134L177.531 277.878Z" fill="url(#paint49_linear)"/>
<path d="M177.563 267.134L183.854 263.48L171.771 256.5L165.475 260.159L177.563 267.134Z" fill="url(#paint50_linear)"/>
<path d="M165.475 260.16L165.447 270.898L177.531 277.878L177.563 267.134L165.475 260.16Z" fill="url(#paint51_linear)"/>
<path d="M194.981 316.489L201.271 312.829C199.439 313.891 196.922 313.77 194.138 312.217L187.848 315.876C190.632 317.43 193.148 317.555 194.981 316.489Z" fill="url(#paint52_linear)"/>
<path d="M208.273 325.886C209.444 323.386 210.045 320.361 210.056 316.904L210.116 296.693L216.407 293.033L216.352 313.245C216.341 316.702 215.74 319.727 214.569 322.227C213.448 324.595 211.856 326.389 209.837 327.565L203.547 331.225C205.565 330.049 207.152 328.255 208.273 325.886Z" fill="url(#paint53_linear)"/>
<path d="M210.116 296.686L216.407 293.032L204.324 286.053L198.033 289.712L210.116 296.686Z" fill="#9C2E22"/>
<path d="M198.032 289.713L197.978 309.925C197.961 316.357 193.432 318.988 187.853 315.876L187.814 329.764C190.768 331.444 193.64 332.423 196.359 332.68C199.017 332.915 201.407 332.445 203.464 331.274C205.521 330.098 207.14 328.293 208.278 325.891C209.448 323.392 210.05 320.367 210.061 316.91L210.116 296.698L198.032 289.713Z" fill="url(#paint54_linear)"/>
<path d="M210.115 296.688L216.406 293.034L216.439 282.291L210.148 285.945L210.115 296.688Z" fill="url(#paint55_linear)"/>
<path d="M210.147 285.944L216.438 282.29L204.355 275.311L198.059 278.97L210.147 285.944Z" fill="url(#paint56_linear)"/>
<path d="M198.061 278.971L198.033 289.714L210.116 296.688L210.149 285.945L198.061 278.971Z" fill="url(#paint57_linear)"/>
<path d="M360.102 396.526V386.68L345.672 378.35L331.242 386.68V396.526L345.672 404.857L360.102 396.526Z" fill="url(#paint58_linear)"/>
<path d="M345.672 404.857V395.098L331.242 386.768V396.526L345.672 404.857Z" fill="url(#paint59_linear)"/>
<path d="M345.672 395.098V404.857L360.102 396.526V386.768L345.672 395.098Z" fill="url(#paint60_linear)"/>
<path d="M88.9219 434.249V426.656L100.048 420.234L111.168 426.656V434.249L100.048 440.67L88.9219 434.249Z" fill="url(#paint61_linear)"/>
<path d="M100.049 440.671V433.144L111.169 426.723V434.249L100.049 440.671Z" fill="url(#paint62_linear)"/>
<path d="M100.048 433.144V440.671L88.9219 434.249V426.723L100.048 433.144Z" fill="url(#paint63_linear)"/>
<path d="M53.2347 396.526V386.68L38.8049 378.35L24.375 386.68V396.526L38.8049 404.857L53.2347 396.526Z" fill="url(#paint64_linear)"/>
<path d="M38.8049 404.857V395.098L24.375 386.768V396.526L38.8049 404.857Z" fill="url(#paint65_linear)"/>
<path d="M38.8047 395.098V404.857L53.2345 396.526V386.768L38.8047 395.098Z" fill="url(#paint66_linear)"/>
<path d="M206.395 486.782V476.936L191.965 468.605L177.535 476.936V486.782L191.965 495.113L206.395 486.782Z" fill="url(#paint67_linear)"/>
<path d="M191.965 495.113V485.354L177.535 477.023V486.782L191.965 495.113Z" fill="url(#paint68_linear)"/>
<path d="M191.965 485.354V495.113L206.395 486.782V477.023L191.965 485.354Z" fill="url(#paint69_linear)"/>
<path d="M289.491 434.249V426.656L278.37 420.234L267.244 426.656V434.249L278.37 440.67L289.491 434.249Z" fill="url(#paint70_linear)"/>
<path d="M278.37 440.671V433.144L267.244 426.723V434.249L278.37 440.671Z" fill="url(#paint71_linear)"/>
<path d="M278.371 433.144V440.671L289.492 434.249V426.723L278.371 433.144Z" fill="url(#paint72_linear)"/>
<defs>
<linearGradient id="paint0_linear" x1="5.32788" y1="-45.9007" x2="298.932" y2="278.745" gradientUnits="userSpaceOnUse">
<stop stop-color="#F3F3F3"/>
<stop offset="1" stop-color="#B2B3B4"/>
</linearGradient>
<linearGradient id="paint1_linear" x1="155.547" y1="374.383" x2="155.547" y2="-101.482" gradientUnits="userSpaceOnUse">
<stop stop-color="#F3F3F3"/>
<stop offset="1" stop-color="#B2B3B4"/>
</linearGradient>
<linearGradient id="paint2_linear" x1="-147.898" y1="531.944" x2="93.7589" y2="192.401" gradientUnits="userSpaceOnUse">
<stop offset="0.0422" stop-color="#032E9B"/>
<stop offset="1" stop-color="#3076FF"/>
</linearGradient>
<linearGradient id="paint3_linear" x1="285.84" y1="238.773" x2="298.139" y2="261.684" gradientUnits="userSpaceOnUse">
<stop stop-color="#4A70B6"/>
<stop offset="1" stop-color="#273B90"/>
</linearGradient>
<linearGradient id="paint4_linear" x1="283.908" y1="238.96" x2="298.197" y2="257.047" gradientUnits="userSpaceOnUse">
<stop stop-color="#4A70B6"/>
<stop offset="1" stop-color="#273B90"/>
</linearGradient>
<linearGradient id="paint5_linear" x1="403.445" y1="228.381" x2="415.744" y2="251.291" gradientUnits="userSpaceOnUse">
<stop stop-color="#4A70B6"/>
<stop offset="1" stop-color="#273B90"/>
</linearGradient>
<linearGradient id="paint6_linear" x1="401.513" y1="228.567" x2="415.802" y2="246.654" gradientUnits="userSpaceOnUse">
<stop stop-color="#4A70B6"/>
<stop offset="1" stop-color="#273B90"/>
</linearGradient>
<linearGradient id="paint7_linear" x1="133.356" y1="108.366" x2="125.24" y2="123.483" gradientUnits="userSpaceOnUse">
<stop stop-color="#4A70B6"/>
<stop offset="1" stop-color="#273B90"/>
</linearGradient>
<linearGradient id="paint8_linear" x1="134.632" y1="108.489" x2="125.203" y2="120.424" gradientUnits="userSpaceOnUse">
<stop stop-color="#4A70B6"/>
<stop offset="1" stop-color="#273B90"/>
</linearGradient>
<linearGradient id="paint9_linear" x1="133.356" y1="157.049" x2="125.24" y2="172.167" gradientUnits="userSpaceOnUse">
<stop stop-color="#4A70B6"/>
<stop offset="1" stop-color="#273B90"/>
</linearGradient>
<linearGradient id="paint10_linear" x1="134.632" y1="157.173" x2="125.203" y2="169.108" gradientUnits="userSpaceOnUse">
<stop stop-color="#4A70B6"/>
<stop offset="1" stop-color="#273B90"/>
</linearGradient>
<linearGradient id="paint11_linear" x1="133.356" y1="205.733" x2="125.24" y2="220.851" gradientUnits="userSpaceOnUse">
<stop stop-color="#4A70B6"/>
<stop offset="1" stop-color="#273B90"/>
</linearGradient>
<linearGradient id="paint12_linear" x1="134.632" y1="205.856" x2="125.203" y2="217.791" gradientUnits="userSpaceOnUse">
<stop stop-color="#4A70B6"/>
<stop offset="1" stop-color="#273B90"/>
</linearGradient>
<linearGradient id="paint13_linear" x1="159.621" y1="19.1101" x2="149.274" y2="128.403" gradientUnits="userSpaceOnUse">
<stop stop-color="#F8A830"/>
<stop offset="1" stop-color="#F16736"/>
</linearGradient>
<linearGradient id="paint14_linear" x1="160.912" y1="58.7538" x2="147.978" y2="216.55" gradientUnits="userSpaceOnUse">
<stop stop-color="#F8A830"/>
<stop offset="1" stop-color="#F16736"/>
</linearGradient>
<radialGradient id="paint15_radial" cx="0" cy="0" r="1" gradientUnits="userSpaceOnUse" gradientTransform="translate(142.127 219.656) scale(32.2916)">
<stop stop-color="#F3F0E2" stop-opacity="0.5"/>
<stop offset="1" stop-color="white" stop-opacity="0"/>
</radialGradient>
<radialGradient id="paint16_radial" cx="0" cy="0" r="1" gradientUnits="userSpaceOnUse" gradientTransform="translate(142.125 171.154) scale(32.2917)">
<stop stop-color="#F3F0E2" stop-opacity="0.5"/>
<stop offset="1" stop-color="white" stop-opacity="0"/>
</radialGradient>
<radialGradient id="paint17_radial" cx="0" cy="0" r="1" gradientUnits="userSpaceOnUse" gradientTransform="translate(142.127 121.356) scale(32.2916)">
<stop stop-color="#F3F0E2" stop-opacity="0.5"/>
<stop offset="1" stop-color="white" stop-opacity="0"/>
</radialGradient>
<linearGradient id="paint18_linear" x1="99.4916" y1="223.909" x2="-19.8072" y2="321.03" gradientUnits="userSpaceOnUse">
<stop stop-color="#EEF8FF"/>
<stop offset="1" stop-color="#3076FF"/>
</linearGradient>
<linearGradient id="paint19_linear" x1="99.3917" y1="223.788" x2="-19.9071" y2="320.91" gradientUnits="userSpaceOnUse">
<stop stop-color="#EEF8FF"/>
<stop offset="1" stop-color="#3076FF"/>
</linearGradient>
<linearGradient id="paint20_linear" x1="97.4271" y1="221.373" x2="-21.8719" y2="318.495" gradientUnits="userSpaceOnUse">
<stop stop-color="#EEF8FF"/>
<stop offset="1" stop-color="#3076FF"/>
</linearGradient>
<linearGradient id="paint21_linear" x1="102.448" y1="227.542" x2="-16.8512" y2="324.664" gradientUnits="userSpaceOnUse">
<stop stop-color="#EEF8FF"/>
<stop offset="1" stop-color="#3076FF"/>
</linearGradient>
<linearGradient id="paint22_linear" x1="77.839" y1="197.314" x2="-41.4599" y2="294.435" gradientUnits="userSpaceOnUse">
<stop stop-color="#EEF8FF"/>
<stop offset="1" stop-color="#3076FF"/>
</linearGradient>
<linearGradient id="paint23_linear" x1="114.061" y1="241.808" x2="-5.2375" y2="338.93" gradientUnits="userSpaceOnUse">
<stop stop-color="#EEF8FF"/>
<stop offset="1" stop-color="#3076FF"/>
</linearGradient>
<linearGradient id="paint24_linear" x1="119.029" y1="247.91" x2="-0.269694" y2="345.032" gradientUnits="userSpaceOnUse">
<stop stop-color="#EEF8FF"/>
<stop offset="1" stop-color="#3076FF"/>
</linearGradient>
<linearGradient id="paint25_linear" x1="275.791" y1="38.118" x2="234.402" y2="374.404" gradientUnits="userSpaceOnUse">
<stop stop-color="#F4F5F5"/>
<stop offset="0.2097" stop-color="#F3EFE1"/>
<stop offset="1" stop-color="#B2B3B4"/>
</linearGradient>
<linearGradient id="paint26_linear" x1="264.588" y1="2.95876" x2="278.169" y2="97.3776" gradientUnits="userSpaceOnUse">
<stop stop-color="#F3F3F3"/>
<stop offset="1" stop-color="#B2B3B4"/>
</linearGradient>
<linearGradient id="paint27_linear" x1="264.32" y1="2.99784" x2="277.9" y2="97.4167" gradientUnits="userSpaceOnUse">
<stop stop-color="#F3F3F3"/>
<stop offset="1" stop-color="#B2B3B4"/>
</linearGradient>
<linearGradient id="paint28_linear" x1="302.836" y1="95.0499" x2="271.178" y2="154.767" gradientUnits="userSpaceOnUse">
<stop stop-color="#4274B8"/>
<stop offset="1" stop-color="#273B90"/>
</linearGradient>
<linearGradient id="paint29_linear" x1="306.788" y1="85.2508" x2="263.141" y2="171.298" gradientUnits="userSpaceOnUse">
<stop stop-color="#032E9B"/>
<stop offset="1" stop-color="#273B90"/>
</linearGradient>
<linearGradient id="paint30_linear" x1="281.587" y1="18.773" x2="240.198" y2="355.059" gradientUnits="userSpaceOnUse">
<stop stop-color="#F4F5F5"/>
<stop offset="0.2097" stop-color="#F3EFE1"/>
<stop offset="1" stop-color="#B2B3B4"/>
</linearGradient>
<linearGradient id="paint31_linear" x1="239.242" y1="45.1143" x2="268.991" y2="150.527" gradientUnits="userSpaceOnUse">
<stop stop-color="#F3F3F3"/>
<stop offset="1" stop-color="#B2B3B4"/>
</linearGradient>
<linearGradient id="paint32_linear" x1="238.057" y1="45.4498" x2="267.805" y2="150.863" gradientUnits="userSpaceOnUse">
<stop stop-color="#F3F3F3"/>
<stop offset="1" stop-color="#B2B3B4"/>
</linearGradient>
<linearGradient id="paint33_linear" x1="247.499" y1="170.974" x2="559.401" y2="345.2" gradientUnits="userSpaceOnUse">
<stop stop-color="#F3F3F3"/>
<stop offset="1" stop-color="#B2B3B4"/>
</linearGradient>
<linearGradient id="paint34_linear" x1="185.426" y1="69.1392" x2="421.219" y2="299.915" gradientUnits="userSpaceOnUse">
<stop stop-color="#F3F3F3"/>
<stop offset="1" stop-color="#B2B3B4"/>
</linearGradient>
<linearGradient id="paint35_linear" x1="354.409" y1="66.8069" x2="567.006" y2="823.896" gradientUnits="userSpaceOnUse">
<stop stop-color="#EEF8FF"/>
<stop offset="1" stop-color="#3076FF"/>
</linearGradient>
<linearGradient id="paint36_linear" x1="363.576" y1="64.233" x2="576.173" y2="821.323" gradientUnits="userSpaceOnUse">
<stop stop-color="#EEF8FF"/>
<stop offset="1" stop-color="#3076FF"/>
</linearGradient>
<linearGradient id="paint37_linear" x1="284.471" y1="205.977" x2="223.553" y2="242.133" gradientUnits="userSpaceOnUse">
<stop stop-color="#F3F3F3"/>
<stop offset="1" stop-color="#B2B3B4"/>
</linearGradient>
<linearGradient id="paint38_linear" x1="-161.474" y1="-10.2779" x2="370.21" y2="579.388" gradientUnits="userSpaceOnUse">
<stop stop-color="#F3F3F3"/>
<stop offset="1" stop-color="#B2B3B4"/>
</linearGradient>
<linearGradient id="paint39_linear" x1="-355.584" y1="686.236" x2="236.27" y2="358.036" gradientUnits="userSpaceOnUse">
<stop stop-color="#5E5E5E"/>
<stop offset="1" stop-color="#B2B3B4"/>
</linearGradient>
<linearGradient id="paint40_linear" x1="-203.216" y1="156.91" x2="413.8" y2="489.486" gradientUnits="userSpaceOnUse">
<stop stop-color="#5E5E5E"/>
<stop offset="1" stop-color="#B2B3B4"/>
</linearGradient>
<linearGradient id="paint41_linear" x1="-84.5878" y1="25.9997" x2="314.722" y2="474.54" gradientUnits="userSpaceOnUse">
<stop stop-color="#F3F3F3"/>
<stop offset="1" stop-color="#B2B3B4"/>
</linearGradient>
<linearGradient id="paint42_linear" x1="-131.322" y1="92.8163" x2="152.024" y2="325.838" gradientUnits="userSpaceOnUse">
<stop stop-color="#F3F3F3"/>
<stop offset="1" stop-color="#B2B3B4"/>
</linearGradient>
<linearGradient id="paint43_linear" x1="63.3766" y1="277.404" x2="447.371" y2="421.812" gradientUnits="userSpaceOnUse">
<stop stop-color="#F3F3F3"/>
<stop offset="1" stop-color="#B2B3B4"/>
</linearGradient>
<linearGradient id="paint44_linear" x1="-134.749" y1="205.394" x2="218.613" y2="335.58" gradientUnits="userSpaceOnUse">
<stop stop-color="#F3F3F3"/>
<stop offset="1" stop-color="#B2B3B4"/>
</linearGradient>
<linearGradient id="paint45_linear" x1="147.416" y1="325.827" x2="236.866" y2="325.827" gradientUnits="userSpaceOnUse">
<stop offset="0.0443" stop-color="#D9D9D9" stop-opacity="0.3"/>
<stop offset="1" stop-color="#E0E0E0" stop-opacity="0.3"/>
</linearGradient>
<linearGradient id="paint46_linear" x1="106.253" y1="258.818" x2="203.214" y2="315.295" gradientUnits="userSpaceOnUse">
<stop offset="0.0422" stop-color="#032E9B"/>
<stop offset="1" stop-color="#3076FF"/>
</linearGradient>
<linearGradient id="paint47_linear" x1="182.476" y1="308.656" x2="198.5" y2="318.808" gradientUnits="userSpaceOnUse">
<stop offset="0.0422" stop-color="#032E9B"/>
<stop offset="1" stop-color="#3076FF"/>
</linearGradient>
<linearGradient id="paint48_linear" x1="113.21" y1="246.873" x2="210.171" y2="303.35" gradientUnits="userSpaceOnUse">
<stop offset="0.0422" stop-color="#032E9B"/>
<stop offset="1" stop-color="#3076FF"/>
</linearGradient>
<linearGradient id="paint49_linear" x1="93.5238" y1="218.142" x2="205.479" y2="285.615" gradientUnits="userSpaceOnUse">
<stop offset="0.00558659" stop-color="#F4F4F4"/>
<stop offset="1" stop-color="#9C9D9E"/>
</linearGradient>
<linearGradient id="paint50_linear" x1="176.262" y1="264.609" x2="234.244" y2="365.986" gradientUnits="userSpaceOnUse">
<stop offset="0.00558659" stop-color="#F4F4F4"/>
<stop offset="1" stop-color="#9C9D9E"/>
</linearGradient>
<linearGradient id="paint51_linear" x1="129.384" y1="247.106" x2="314.809" y2="343.567" gradientUnits="userSpaceOnUse">
<stop offset="0.00558659" stop-color="#F4F4F4"/>
<stop offset="1" stop-color="#9C9D9E"/>
</linearGradient>
<linearGradient id="paint52_linear" x1="192.071" y1="311.479" x2="291.363" y2="426.1" gradientUnits="userSpaceOnUse">
<stop stop-color="#F7A72E"/>
<stop offset="1" stop-color="#F06834"/>
</linearGradient>
<linearGradient id="paint53_linear" x1="96.0856" y1="240.626" x2="207.541" y2="310.598" gradientUnits="userSpaceOnUse">
<stop stop-color="#F7A72E"/>
<stop offset="1" stop-color="#F06834"/>
</linearGradient>
<linearGradient id="paint54_linear" x1="120.366" y1="276.891" x2="265.807" y2="342.864" gradientUnits="userSpaceOnUse">
<stop stop-color="#F7A72E"/>
<stop offset="1" stop-color="#F06834"/>
</linearGradient>
<linearGradient id="paint55_linear" x1="89.9904" y1="247.001" x2="266.919" y2="307.976" gradientUnits="userSpaceOnUse">
<stop offset="0.00558659" stop-color="#F4F4F4"/>
<stop offset="1" stop-color="#9C9D9E"/>
</linearGradient>
<linearGradient id="paint56_linear" x1="207.233" y1="280.247" x2="211.974" y2="395.117" gradientUnits="userSpaceOnUse">
<stop offset="0.00558659" stop-color="#F4F4F4"/>
<stop offset="1" stop-color="#9C9D9E"/>
</linearGradient>
<linearGradient id="paint57_linear" x1="128.623" y1="248.57" x2="314.048" y2="345.031" gradientUnits="userSpaceOnUse">
<stop offset="0.00558659" stop-color="#F4F4F4"/>
<stop offset="1" stop-color="#9C9D9E"/>
</linearGradient>
<linearGradient id="paint58_linear" x1="402.756" y1="467.082" x2="323.409" y2="362.167" gradientUnits="userSpaceOnUse">
<stop offset="0.0422" stop-color="#032E9B"/>
<stop offset="1" stop-color="#3076FF"/>
</linearGradient>
<linearGradient id="paint59_linear" x1="330.767" y1="387.851" x2="412.319" y2="472.268" gradientUnits="userSpaceOnUse">
<stop offset="0.0422" stop-color="#032E9B"/>
<stop offset="1" stop-color="#3076FF"/>
</linearGradient>
<linearGradient id="paint60_linear" x1="352.885" y1="398.637" x2="352.885" y2="380.548" gradientUnits="userSpaceOnUse">
<stop offset="0.0422" stop-color="#032E9B"/>
<stop offset="1" stop-color="#3076FF"/>
</linearGradient>
<linearGradient id="paint61_linear" x1="56.0382" y1="488.639" x2="117.208" y2="407.759" gradientUnits="userSpaceOnUse">
<stop offset="0.0422" stop-color="#032E9B"/>
<stop offset="1" stop-color="#3076FF"/>
</linearGradient>
<linearGradient id="paint62_linear" x1="111.536" y1="427.56" x2="48.6674" y2="492.638" gradientUnits="userSpaceOnUse">
<stop offset="0.0422" stop-color="#032E9B"/>
<stop offset="1" stop-color="#3076FF"/>
</linearGradient>
<linearGradient id="paint63_linear" x1="94.484" y1="435.876" x2="94.484" y2="421.931" gradientUnits="userSpaceOnUse">
<stop offset="0.0422" stop-color="#032E9B"/>
<stop offset="1" stop-color="#3076FF"/>
</linearGradient>
<linearGradient id="paint64_linear" x1="95.8889" y1="467.082" x2="16.5414" y2="362.167" gradientUnits="userSpaceOnUse">
<stop offset="0.0422" stop-color="#032E9B"/>
<stop offset="1" stop-color="#3076FF"/>
</linearGradient>
<linearGradient id="paint65_linear" x1="23.8998" y1="387.851" x2="105.452" y2="472.268" gradientUnits="userSpaceOnUse">
<stop offset="0.0422" stop-color="#032E9B"/>
<stop offset="1" stop-color="#3076FF"/>
</linearGradient>
<linearGradient id="paint66_linear" x1="46.018" y1="398.637" x2="46.018" y2="380.548" gradientUnits="userSpaceOnUse">
<stop offset="0.0422" stop-color="#032E9B"/>
<stop offset="1" stop-color="#3076FF"/>
</linearGradient>
<linearGradient id="paint67_linear" x1="249.049" y1="557.338" x2="169.702" y2="452.423" gradientUnits="userSpaceOnUse">
<stop offset="0.0422" stop-color="#032E9B"/>
<stop offset="1" stop-color="#3076FF"/>
</linearGradient>
<linearGradient id="paint68_linear" x1="177.06" y1="478.107" x2="258.611" y2="562.524" gradientUnits="userSpaceOnUse">
<stop offset="0.0422" stop-color="#032E9B"/>
<stop offset="1" stop-color="#3076FF"/>
</linearGradient>
<linearGradient id="paint69_linear" x1="199.178" y1="488.893" x2="199.178" y2="470.804" gradientUnits="userSpaceOnUse">
<stop offset="0.0422" stop-color="#032E9B"/>
<stop offset="1" stop-color="#3076FF"/>
</linearGradient>
<linearGradient id="paint70_linear" x1="322.375" y1="488.639" x2="261.205" y2="407.759" gradientUnits="userSpaceOnUse">
<stop offset="0.0422" stop-color="#032E9B"/>
<stop offset="1" stop-color="#3076FF"/>
</linearGradient>
<linearGradient id="paint71_linear" x1="266.878" y1="427.56" x2="329.747" y2="492.638" gradientUnits="userSpaceOnUse">
<stop offset="0.0422" stop-color="#032E9B"/>
<stop offset="1" stop-color="#3076FF"/>
</linearGradient>
<linearGradient id="paint72_linear" x1="283.93" y1="435.876" x2="283.93" y2="421.931" gradientUnits="userSpaceOnUse">
<stop offset="0.0422" stop-color="#032E9B"/>
<stop offset="1" stop-color="#3076FF"/>
</linearGradient>
</defs>
</svg>
